# xmcd
#
# Track frame offsets:
#	150
#	28879
#	36218
#	67351
#	75046
#	84107
#	100295
#	149213
#	163485
#	204598
#	241624
#	279071
#	314434
#	329229
#
# Disc length: 4748 seconds
#
# Revision: 1
# Processed by: cddbd v1.5.2PL0 Copyright (c) Steve Scherf et al.
# Submitted via: audiograbber 1.83.01
#
DISCID=c9128a0e
DTITLE=Grateful Dead - 71-11-17 Albuquerque Civic Auditorium, Albuquerque NM
DYEAR=1900
DGENRE=
TTITLE0=Casey Jones
TTITLE1=One More Saturday Night
TTITLE2=Sugar Magnolia
TTITLE3=Tuning
TTITLE4=Cryptical Envelopment
TTITLE5=Drums
TTITLE6=The Other One
TTITLE7=Me and My Uncle
TTITLE8=The Other One
TTITLE9=Wharf Rat
TTITLE10=Not Fade Away
TTITLE11=Going Down The Road Feeling Bad
TTITLE12=Not Fade Away
TTITLE13=Ramble On Rose
EXTD=
EXTT0=
EXTT1=
EXTT2=
EXTT3=
EXTT4=
EXTT5=
EXTT6=
EXTT7=
EXTT8=
EXTT9=
EXTT10=
EXTT11=
EXTT12=
EXTT13=
PLAYORDER=
